# Blender 3.4.1
# www.blender.org
mtllib laser-gun_1.mtl
o Cube
v -0.229203 -1.616501 0.229203
v -0.229203 1.616501 0.229203
v -0.229203 -1.616501 -0.229203
v -0.229203 1.616501 -0.229203
v 0.229203 -1.616501 0.229203
v 0.229203 1.616501 0.229203
v 0.229203 -1.616501 -0.229203
v 0.229203 1.616501 -0.229203
vn -1.0000 -0.0000 -0.0000
vn -0.0000 -0.0000 -1.0000
vn 1.0000 -0.0000 -0.0000
vn -0.0000 -0.0000 1.0000
vn -0.0000 -1.0000 -0.0000
vn -0.0000 1.0000 -0.0000
vt 0.375000 0.000000
vt 0.375000 1.000000
vt 0.125000 0.750000
vt 0.625000 0.000000
vt 0.625000 1.000000
vt 0.875000 0.750000
vt 0.375000 0.250000
vt 0.125000 0.500000
vt 0.625000 0.250000
vt 0.875000 0.500000
vt 0.375000 0.750000
vt 0.625000 0.750000
vt 0.375000 0.500000
vt 0.625000 0.500000
s 0
f 1/1/1 2/4/1 4/9/1 3/7/1
f 3/7/2 4/9/2 8/14/2 7/13/2
f 7/13/3 8/14/3 6/12/3 5/11/3
f 5/11/4 6/12/4 2/5/4 1/2/4
f 3/8/5 7/13/5 5/11/5 1/3/5
f 8/14/6 4/10/6 2/6/6 6/12/6
o Cube.001
v -0.229203 1.151965 5.207665
v -0.229203 1.101425 -0.275868
v -0.229203 1.610389 5.203440
v -0.229203 1.559849 -0.280094
v 0.229203 1.151965 5.207665
v 0.229203 1.101425 -0.275868
v 0.229203 1.610389 5.203440
v 0.229203 1.559849 -0.280094
vn -1.0000 -0.0000 -0.0000
vn -0.0000 1.0000 -0.0092
vn 1.0000 -0.0000 -0.0000
vn -0.0000 -1.0000 0.0092
vn -0.0000 0.0092 1.0000
vn -0.0000 -0.0092 -1.0000
vt 0.375000 0.000000
vt 0.375000 1.000000
vt 0.125000 0.750000
vt 0.625000 0.000000
vt 0.625000 1.000000
vt 0.875000 0.750000
vt 0.375000 0.250000
vt 0.125000 0.500000
vt 0.625000 0.250000
vt 0.875000 0.500000
vt 0.375000 0.750000
vt 0.625000 0.750000
vt 0.375000 0.500000
vt 0.625000 0.500000
s 0
f 9/15/7 11/21/7 12/23/7 10/18/7
f 11/21/8 15/27/8 16/28/8 12/23/8
f 15/27/9 13/25/9 14/26/9 16/28/9
f 13/25/10 9/16/10 10/19/10 14/26/10
f 11/22/11 9/17/11 13/25/11 15/27/11
f 16/28/12 14/26/12 10/20/12 12/24/12
o Cube.002
v -0.229203 0.159524 3.116586
v -0.229203 1.259277 3.116586
v -0.229203 0.159524 2.658179
v -0.229203 1.259277 2.658179
v 0.229203 0.159524 3.116586
v 0.229203 1.259277 3.116586
v 0.229203 0.159524 2.658179
v 0.229203 1.259277 2.658179
vn -1.0000 -0.0000 -0.0000
vn -0.0000 -0.0000 -1.0000
vn 1.0000 -0.0000 -0.0000
vn -0.0000 -0.0000 1.0000
vn -0.0000 -1.0000 -0.0000
vn -0.0000 1.0000 -0.0000
vt 0.375000 0.000000
vt 0.375000 1.000000
vt 0.125000 0.750000
vt 0.625000 0.000000
vt 0.625000 1.000000
vt 0.875000 0.750000
vt 0.375000 0.250000
vt 0.125000 0.500000
vt 0.625000 0.250000
vt 0.875000 0.500000
vt 0.375000 0.750000
vt 0.625000 0.750000
vt 0.375000 0.500000
vt 0.625000 0.500000
s 0
f 17/29/13 18/32/13 20/37/13 19/35/13
f 19/35/14 20/37/14 24/42/14 23/41/14
f 23/41/15 24/42/15 22/40/15 21/39/15
f 21/39/16 22/40/16 18/33/16 17/30/16
f 19/36/17 23/41/17 21/39/17 17/31/17
f 24/42/18 20/38/18 18/34/18 22/40/18
o Cube.003
v -0.229203 1.142879 -3.176973
v -0.229203 1.185518 0.055747
v -0.229203 1.601245 -3.183019
v -0.229203 1.643885 0.049701
v 0.229203 1.142879 -3.176973
v 0.229203 1.185518 0.055747
v 0.229203 1.601245 -3.183019
v 0.229203 1.643885 0.049701
vn -1.0000 -0.0000 -0.0000
vn -0.0000 0.9999 -0.0132
vn 1.0000 -0.0000 -0.0000
vn -0.0000 -0.9999 0.0132
vn -0.0000 -0.0132 -0.9999
vn -0.0000 0.0132 0.9999
vt 0.375000 0.000000
vt 0.375000 1.000000
vt 0.125000 0.750000
vt 0.625000 0.000000
vt 0.625000 1.000000
vt 0.875000 0.750000
vt 0.375000 0.250000
vt 0.125000 0.500000
vt 0.625000 0.250000
vt 0.875000 0.500000
vt 0.375000 0.750000
vt 0.625000 0.750000
vt 0.375000 0.500000
vt 0.625000 0.500000
s 0
f 25/43/19 26/46/19 28/51/19 27/49/19
f 27/49/20 28/51/20 32/56/20 31/55/20
f 31/55/21 32/56/21 30/54/21 29/53/21
f 29/53/22 30/54/22 26/47/22 25/44/22
f 27/50/23 31/55/23 29/53/23 25/45/23
f 32/56/24 28/52/24 26/48/24 30/54/24
o Cube.004
v -0.229203 0.159524 -2.687897
v -0.229203 1.259277 -2.687897
v -0.229203 0.159524 -3.146304
v -0.229203 1.259277 -3.146304
v 0.229203 0.159524 -2.687897
v 0.229203 1.259277 -2.687897
v 0.229203 0.159524 -3.146304
v 0.229203 1.259277 -3.146304
vn -1.0000 -0.0000 -0.0000
vn -0.0000 -0.0000 -1.0000
vn 1.0000 -0.0000 -0.0000
vn -0.0000 -0.0000 1.0000
vn -0.0000 -1.0000 -0.0000
vn -0.0000 1.0000 -0.0000
vt 0.375000 0.000000
vt 0.375000 1.000000
vt 0.125000 0.750000
vt 0.625000 0.000000
vt 0.625000 1.000000
vt 0.875000 0.750000
vt 0.375000 0.250000
vt 0.125000 0.500000
vt 0.625000 0.250000
vt 0.875000 0.500000
vt 0.375000 0.750000
vt 0.625000 0.750000
vt 0.375000 0.500000
vt 0.625000 0.500000
s 0
f 33/57/25 34/60/25 36/65/25 35/63/25
f 35/63/26 36/65/26 40/70/26 39/69/26
f 39/69/27 40/70/27 38/68/27 37/67/27
f 37/67/28 38/68/28 34/61/28 33/58/28
f 35/64/29 39/69/29 37/67/29 33/59/29
f 40/70/30 36/66/30 34/62/30 38/68/30
o Cube.005
v -0.229203 -0.060927 -3.044374
v -0.229203 0.875867 0.049930
v -0.229203 0.377814 -3.177202
v -0.229203 1.314607 -0.082898
v 0.229203 -0.060927 -3.044374
v 0.229203 0.875867 0.049930
v 0.229203 0.377814 -3.177202
v 0.229203 1.314607 -0.082898
vn -1.0000 -0.0000 -0.0000
vn -0.0000 0.9571 -0.2898
vn 1.0000 -0.0000 -0.0000
vn -0.0000 -0.9571 0.2898
vn -0.0000 -0.2898 -0.9571
vn -0.0000 0.2898 0.9571
vt 0.375000 0.000000
vt 0.375000 1.000000
vt 0.125000 0.750000
vt 0.625000 0.000000
vt 0.625000 1.000000
vt 0.875000 0.750000
vt 0.375000 0.250000
vt 0.125000 0.500000
vt 0.625000 0.250000
vt 0.875000 0.500000
vt 0.375000 0.750000
vt 0.625000 0.750000
vt 0.375000 0.500000
vt 0.625000 0.500000
s 0
f 41/71/31 42/74/31 44/79/31 43/77/31
f 43/77/32 44/79/32 48/84/32 47/83/32
f 47/83/33 48/84/33 46/82/33 45/81/33
f 45/81/34 46/82/34 42/75/34 41/72/34
f 43/78/35 47/83/35 45/81/35 41/73/35
f 48/84/36 44/80/36 42/76/36 46/82/36
o Cube.006
v -0.333987 1.036419 7.967566
v -0.333987 1.007298 4.807984
v -0.333987 1.704515 7.961409
v -0.333987 1.675395 4.801827
v 0.333987 1.036419 7.967566
v 0.333987 1.007298 4.807984
v 0.333987 1.704515 7.961409
v 0.333987 1.675395 4.801827
vn -1.0000 -0.0000 -0.0000
vn -0.0000 1.0000 -0.0092
vn 1.0000 -0.0000 -0.0000
vn -0.0000 -1.0000 0.0092
vn -0.0000 0.0092 1.0000
vn -0.0000 -0.0092 -1.0000
vt 0.375000 0.000000
vt 0.375000 1.000000
vt 0.125000 0.750000
vt 0.625000 0.000000
vt 0.625000 1.000000
vt 0.875000 0.750000
vt 0.375000 0.250000
vt 0.125000 0.500000
vt 0.625000 0.250000
vt 0.875000 0.500000
vt 0.375000 0.750000
vt 0.625000 0.750000
vt 0.375000 0.500000
vt 0.625000 0.500000
s 0
f 49/85/37 51/91/37 52/93/37 50/88/37
f 51/91/38 55/97/38 56/98/38 52/93/38
f 55/97/39 53/95/39 54/96/39 56/98/39
f 53/95/40 49/86/40 50/89/40 54/96/40
f 51/92/41 49/87/41 53/95/41 55/97/41
f 56/98/42 54/96/42 50/90/42 52/94/42
o Cube.007
v -0.534656 0.835611 9.342572
v -0.534656 0.806724 6.208293
v -0.534656 1.905090 9.332716
v -0.534656 1.876202 6.198437
v 0.534656 0.835611 9.342572
v 0.534656 0.806724 6.208293
v 0.534656 1.905090 9.332716
v 0.534656 1.876202 6.198437
vn -1.0000 -0.0000 -0.0000
vn -0.0000 1.0000 -0.0092
vn 1.0000 -0.0000 -0.0000
vn -0.0000 -1.0000 0.0092
vn -0.0000 0.0092 1.0000
vn -0.0000 -0.0092 -1.0000
vt 0.375000 0.000000
vt 0.375000 1.000000
vt 0.125000 0.750000
vt 0.625000 0.000000
vt 0.625000 1.000000
vt 0.875000 0.750000
vt 0.375000 0.250000
vt 0.125000 0.500000
vt 0.625000 0.250000
vt 0.875000 0.500000
vt 0.375000 0.750000
vt 0.625000 0.750000
vt 0.375000 0.500000
vt 0.625000 0.500000
s 0
f 57/99/43 59/105/43 60/107/43 58/102/43
f 59/105/44 63/111/44 64/112/44 60/107/44
f 63/111/45 61/109/45 62/110/45 64/112/45
f 61/109/46 57/100/46 58/103/46 62/110/46
f 59/106/47 57/101/47 61/109/47 63/111/47
f 64/112/48 62/110/48 58/104/48 60/108/48
